<?xml version="1.0" standalone="no"?>
<!DOCTYPE svg PUBLIC "-//W3C//DTD SVG 20010904//EN"
 "http://www.w3.org/TR/2001/REC-SVG-20010904/DTD/svg10.dtd">
<svg version="1.0" xmlns="http://www.w3.org/2000/svg"
 width="1019.000000pt" height="1020.000000pt" viewBox="0 0 1019.000000 1020.000000"
 preserveAspectRatio="xMidYMid meet">

<g transform="translate(0.000000,1020.000000) scale(0.100000,-0.100000)"
fill="#000000" stroke="none">
<path d="M2792 10121 c-67 -11 -93 -28 -122 -84 -23 -43 -23 -48 -12 -109 7
-34 12 -100 11 -145 -1 -75 1 -86 25 -117 39 -52 107 -80 191 -81 39 0 97 3
130 7 l60 7 -75 -23 c-41 -12 -105 -36 -141 -53 -57 -26 -68 -36 -82 -72 -21
-51 -21 -86 -2 -175 8 -39 11 -89 8 -113 -12 -87 49 -178 136 -204 37 -11 114
-4 180 18 9 3 -30 -18 -87 -46 -130 -65 -157 -99 -156 -200 0 -48 7 -84 26
-132 15 -36 34 -101 43 -144 19 -93 40 -126 100 -155 47 -23 145 -30 215 -16
33 6 31 5 -15 -19 -65 -34 -96 -65 -131 -128 -61 -112 -30 -188 101 -253 63
-31 89 -38 154 -42 l79 -4 -41 -32 c-81 -61 -117 -198 -72 -274 40 -67 151
-117 288 -131 70 -6 84 -5 125 15 66 31 194 58 282 58 63 1 80 -3 107 -22 45
-32 59 -86 43 -166 -39 -199 -135 -296 -295 -296 -38 0 -87 5 -108 11 -52 14
-102 61 -123 114 -23 60 -16 174 15 233 12 23 17 42 12 42 -22 0 -51 -100 -51
-177 1 -168 76 -235 262 -236 64 0 84 5 123 27 26 14 49 26 51 26 2 0 1 -13
-2 -28 -6 -29 19 -103 33 -101 19 3 33 -2 33 -12 0 -8 -5 -8 -15 1 -29 24 -15
-6 18 -37 68 -65 179 -97 288 -83 38 5 56 13 70 31 l19 24 0 -36 c0 -42 35
-80 123 -132 102 -62 228 -71 371 -27 85 27 100 45 99 123 -2 135 -89 359
-159 406 -50 34 -128 40 -180 13 -57 -29 -154 -136 -194 -215 -19 -36 -36 -65
-37 -63 -1 1 4 25 12 54 7 29 16 85 20 125 5 59 3 78 -12 106 -23 44 -58 70
-105 77 -64 11 -211 -71 -332 -185 l-49 -46 38 48 c76 95 116 276 77 346 -26
47 -74 71 -143 71 -66 0 -208 -25 -257 -46 -30 -12 -27 -7 30 49 77 74 144
162 153 200 12 46 -3 92 -46 141 -63 71 -86 80 -194 72 -51 -4 -116 -13 -146
-21 l-54 -14 35 27 c123 95 190 182 190 247 0 58 -45 126 -102 154 -54 26
-180 29 -273 6 -87 -21 -88 -19 -7 21 96 46 201 145 232 216 35 81 26 153 -32
270 -56 111 -96 161 -151 190 -44 22 -122 29 -167 15 -14 -4 7 8 47 27 97 46
113 72 113 187 0 91 -23 225 -46 270 -16 32 -68 77 -103 91 -14 5 -55 10 -91
10 l-65 1 47 13 c57 17 104 62 118 112 15 54 13 76 -15 155 -13 40 -29 92 -36
116 -14 59 -56 96 -122 111 -71 15 -221 21 -285 11z m305 -30 c49 -13 79 -47
94 -105 5 -22 21 -76 35 -118 28 -84 26 -123 -6 -176 -25 -40 -64 -60 -158
-78 -178 -35 -300 -15 -356 58 -24 32 -26 42 -26 132 0 53 -5 117 -11 141 -10
41 -9 48 15 90 15 24 36 50 48 56 50 27 267 26 365 0z m140 -512 c34 -13 80
-55 98 -90 22 -41 48 -214 43 -289 -5 -99 -33 -122 -220 -188 -130 -46 -198
-56 -245 -37 -82 34 -113 85 -113 184 0 38 -7 100 -16 137 -29 126 -2 185 102
227 155 62 282 82 351 56z m160 -592 c56 -27 127 -131 171 -250 25 -66 27 -98
10 -165 -17 -69 -135 -185 -241 -237 -67 -33 -90 -39 -163 -43 -153 -8 -212
34 -238 169 -8 41 -26 106 -41 144 -15 39 -29 84 -32 101 -6 39 11 104 37 137
26 33 184 114 290 148 95 31 138 30 207 -4z m219 -696 c51 -23 94 -78 101
-129 7 -56 -22 -106 -112 -190 -93 -87 -159 -122 -232 -122 -94 0 -224 56
-272 116 -62 79 15 238 143 295 109 47 299 63 372 30z m257 -446 c53 -52 72
-103 58 -153 -10 -34 -107 -158 -161 -206 -50 -44 -111 -76 -146 -76 -49 0
-183 38 -230 65 -55 32 -84 80 -84 137 0 172 154 275 416 277 l100 1 47 -45z
m581 -609 c35 -14 69 -55 79 -93 9 -37 -12 -171 -40 -255 -38 -116 -72 -128
-218 -78 -97 33 -225 134 -225 176 0 42 166 179 282 234 72 34 77 35 122 16z
m451 -80 c49 -29 89 -97 131 -226 33 -100 41 -243 14 -260 -20 -13 -222 -13
-296 0 -32 6 -99 23 -147 37 -94 28 -107 41 -107 99 0 47 82 194 149 266 102
110 172 133 256 84z m-746 -302 c22 -14 66 -37 98 -50 53 -23 55 -25 19 -19
-52 9 -118 40 -146 71 -30 31 -20 31 29 -2z m442 -158 c60 -25 190 -47 287
-48 106 -1 104 -12 -5 -28 -108 -15 -234 15 -308 74 -25 19 -17 20 26 2z"/>
<path d="M2936 9996 c38 -104 37 -106 -48 -107 -40 -1 -86 -5 -103 -9 -18 -5
-1 -6 41 -3 113 9 136 1 163 -54 12 -25 25 -68 28 -95 5 -42 3 -48 -12 -48
-10 0 -16 -2 -14 -5 3 -2 25 -1 50 4 31 6 36 9 17 10 -26 1 -28 4 -28 40 0 23
-12 62 -30 97 -16 32 -30 72 -30 88 l0 29 73 -5 c40 -3 63 -2 52 3 -11 4 -45
8 -76 8 -55 1 -56 1 -67 38 -10 32 -9 40 6 57 16 18 16 18 -4 8 -15 -8 -24 -8
-32 0 -6 6 1 -20 14 -56z"/>
<path d="M3000 9510 c-8 -5 -26 -10 -40 -11 -23 -2 -23 -2 5 -8 17 -4 55 -19
86 -34 l56 -27 -21 -55 -21 -55 -45 -1 c-25 0 -54 -4 -65 -9 -12 -4 5 -6 42
-3 61 6 63 5 93 -27 38 -41 70 -101 70 -132 0 -13 -7 -33 -15 -46 -16 -21 -15
-22 17 -15 39 7 49 13 22 13 -16 0 -19 7 -19 49 0 42 -7 59 -44 111 l-43 62
17 44 c9 24 21 47 27 50 6 4 45 7 87 6 l76 0 -83 8 c-114 12 -227 64 -179 83
6 3 8 6 2 6 -5 0 -17 -4 -25 -9z"/>
<path d="M2900 9290 c-8 -5 -10 -10 -5 -10 6 0 17 5 25 10 8 5 11 10 5 10 -5
0 -17 -5 -25 -10z"/>
<path d="M3105 8894 c-16 -8 -41 -24 -55 -35 -23 -19 -22 -19 13 1 46 27 80
23 144 -18 40 -24 44 -30 38 -56 -3 -17 -8 -53 -11 -82 l-7 -52 -56 -7 c-63
-7 -196 -44 -188 -51 3 -3 36 3 74 14 37 11 91 23 120 26 50 6 52 6 72 -27 11
-18 32 -40 46 -47 25 -13 26 -17 19 -65 -8 -59 -21 -96 -37 -108 -8 -6 -5 -7
6 -3 10 3 24 6 30 6 8 0 8 3 2 8 -7 5 -5 29 6 72 l16 65 23 -38 c12 -21 25
-36 28 -33 10 11 -47 84 -83 106 -49 30 -68 69 -60 128 15 113 11 110 125 123
65 8 65 8 -15 4 -75 -3 -84 -1 -153 32 -48 25 -68 39 -60 45 22 14 -6 8 -37
-8z"/>
<path d="M3436 8193 c-30 -22 -54 -29 -110 -34 l-71 -6 66 -1 c64 -2 67 -3 74
-29 3 -16 18 -40 31 -54 l25 -26 -25 -16 c-13 -9 -34 -31 -47 -49 -19 -27 -14
-24 33 18 37 33 72 55 102 64 26 7 44 15 42 18 -3 2 -25 -3 -51 -11 -43 -15
-46 -15 -64 5 -11 11 -25 34 -32 50 -11 26 -10 32 4 40 21 11 74 57 67 58 -3
0 -23 -12 -44 -27z"/>
<path d="M3640 7787 c-19 -12 -64 -27 -100 -34 l-65 -13 68 4 c61 3 67 2 67
-16 0 -29 26 -73 57 -98 l28 -22 -30 -21 c-39 -29 -84 -71 -65 -61 8 4 31 19
51 33 33 24 109 61 153 75 10 4 17 9 14 12 -3 3 -29 -4 -57 -15 l-52 -20 -39
36 c-26 22 -42 47 -46 70 -6 31 -3 38 27 63 40 34 37 36 -11 7z"/>
<path d="M4179 6927 c20 -21 58 -46 88 -57 76 -28 90 -25 19 5 -32 13 -77 38
-100 56 l-41 32 34 -36z"/>
<path d="M4615 6774 c60 -44 245 -70 327 -47 18 5 -13 8 -85 9 -94 0 -124 4
-187 26 -41 14 -66 20 -55 12z"/>
<path d="M7195 10110 c-120 -19 -154 -43 -176 -124 -7 -22 -22 -72 -35 -109
-29 -83 -30 -136 -4 -187 24 -46 54 -68 118 -87 l47 -13 -48 6 c-27 3 -72 0
-100 -7 -66 -15 -133 -79 -142 -136 -4 -21 -11 -51 -16 -68 -6 -16 -13 -75
-16 -131 -8 -141 3 -164 111 -216 45 -22 72 -36 61 -32 -53 18 -122 16 -174
-6 -42 -18 -61 -36 -97 -86 -24 -34 -60 -96 -79 -137 -29 -62 -35 -87 -35
-142 0 -83 16 -122 81 -190 106 -112 237 -175 362 -175 109 1 170 29 203 91 7
15 20 58 28 97 8 38 28 104 45 147 36 88 38 133 12 191 -26 57 -53 80 -156
131 -49 25 -79 43 -65 39 147 -35 181 -31 246 26 59 52 56 39 80 353 9 122
-18 150 -211 215 -85 28 -87 29 -35 22 30 -4 89 -7 130 -7 92 0 158 29 195 83
22 32 25 48 25 121 0 47 5 111 12 144 12 55 11 61 -12 104 -18 34 -35 51 -65
64 -50 22 -204 32 -290 19z m290 -32 c17 -9 41 -35 54 -59 23 -40 23 -45 10
-93 -8 -29 -13 -89 -12 -138 2 -105 -16 -140 -91 -177 -41 -21 -63 -25 -130
-24 -94 2 -221 25 -266 48 -36 19 -67 65 -76 114 -7 33 31 173 72 268 27 65
88 83 279 80 98 -2 137 -7 160 -19z m-276 -523 c118 -38 188 -71 207 -100 25
-38 28 -101 10 -188 -9 -44 -14 -93 -10 -111 9 -53 -12 -110 -55 -149 -64 -57
-98 -63 -214 -33 -54 14 -140 45 -193 70 -118 56 -130 76 -120 201 19 253 75
335 228 335 44 0 94 -9 147 -25z m-187 -574 c114 -39 264 -117 287 -150 22
-32 41 -86 41 -118 0 -13 -13 -54 -29 -92 -16 -37 -38 -111 -50 -164 -20 -84
-27 -100 -56 -126 -119 -105 -357 -46 -517 128 -66 70 -83 117 -75 202 8 95
115 282 181 316 77 40 109 41 218 4z"/>
<path d="M7262 10034 c15 -17 16 -25 6 -57 l-11 -37 -61 -2 -61 -2 58 -3 57
-4 0 -34 c0 -19 -4 -36 -9 -39 -15 -10 -48 -89 -56 -133 -5 -35 -11 -43 -28
-43 -30 0 -17 -6 28 -14 29 -5 35 -4 24 4 -14 8 -15 18 -8 56 5 26 19 66 30
90 19 36 28 44 61 49 21 4 67 4 101 1 42 -3 52 -2 32 3 -16 5 -60 9 -97 10
-80 1 -81 4 -44 107 13 36 20 62 14 56 -8 -8 -17 -8 -32 0 -20 10 -20 10 -4
-8z"/>
<path d="M7197 9499 c10 -12 7 -18 -15 -31 -41 -23 -95 -39 -170 -48 l-67 -8
74 1 73 2 19 -35 c25 -47 24 -73 -5 -107 -44 -52 -69 -111 -63 -148 3 -19 1
-35 -4 -37 -5 -2 7 -8 26 -14 l35 -11 -25 23 c-14 13 -25 33 -25 46 1 34 33
98 70 137 30 32 33 33 89 28 32 -2 73 -12 92 -21 28 -14 31 -14 14 -1 -25 20
-80 35 -128 35 -27 0 -39 5 -43 18 -3 9 -13 34 -23 54 l-19 37 56 27 c32 15
71 30 87 34 25 7 26 8 7 9 -13 1 -33 6 -45 13 -19 10 -20 9 -10 -3z"/>
<path d="M7058 8896 c23 -12 23 -13 -20 -31 -24 -10 -55 -27 -69 -37 -23 -15
-33 -16 -87 -6 -45 8 -67 8 -84 0 -22 -10 -21 -11 7 -6 17 2 55 -2 85 -9 63
-14 67 -22 69 -135 l1 -62 -59 -46 c-32 -25 -64 -57 -70 -71 -17 -37 -5 -41
14 -4 22 43 31 39 39 -16 4 -27 8 -57 10 -67 1 -11 7 -21 13 -23 8 -3 7 12 -3
43 -23 78 -19 108 20 138 19 14 38 36 41 47 7 20 12 21 64 16 31 -4 87 -16
125 -27 37 -12 70 -19 73 -16 8 8 -135 47 -193 53 l-52 6 -10 66 c-5 36 -12
72 -13 80 -5 19 96 81 131 81 14 0 35 -7 46 -15 28 -21 41 -18 13 4 -23 18
-94 51 -108 51 -3 -1 4 -6 17 -14z"/>
<path d="M6607 8311 c-71 -24 -137 -105 -137 -171 0 -17 7 -45 16 -62 21 -40
95 -120 157 -170 49 -38 50 -46 2 -28 -14 5 -75 14 -135 20 -126 12 -140 8
-202 -57 -94 -97 -78 -168 74 -329 40 -43 64 -74 53 -70 -48 18 -205 46 -260
46 -106 0 -157 -49 -157 -149 0 -97 35 -197 95 -276 31 -39 30 -39 -23 10
-125 115 -264 192 -324 181 -41 -8 -81 -38 -101 -76 -25 -49 -16 -182 20 -295
4 -11 -13 16 -36 59 -49 90 -144 198 -200 227 -75 38 -163 19 -217 -47 -63
-77 -140 -317 -127 -400 7 -52 24 -67 101 -93 131 -44 257 -37 364 21 91 49
122 80 127 131 l5 45 28 -32 c28 -30 30 -31 117 -30 74 0 97 4 148 28 71 32
98 56 132 114 20 33 24 52 20 83 -3 21 -4 39 -2 39 1 0 24 -12 51 -27 44 -25
59 -28 140 -27 108 1 170 25 209 82 52 77 57 206 10 297 -14 30 -18 45 -10 41
19 -7 135 11 191 30 110 37 164 97 164 181 0 79 -25 137 -80 186 l-49 42 46
-4 c106 -8 272 69 307 144 41 87 -34 230 -149 284 -94 44 -301 73 -368 52z
m268 -31 c132 -34 208 -99 240 -204 12 -38 12 -54 2 -83 -25 -76 -159 -145
-282 -147 -90 -1 -138 25 -256 143 -72 71 -88 93 -93 126 -11 64 29 135 99
173 34 19 203 14 290 -8z m-268 -406 c140 -29 237 -95 268 -183 31 -88 15
-157 -49 -206 -77 -59 -252 -93 -313 -61 -18 9 -40 13 -50 10 -12 -4 -14 -3
-6 3 9 6 -3 24 -44 63 -30 30 -76 82 -101 114 -39 50 -46 66 -46 106 -1 54 28
104 85 145 28 21 44 25 106 25 41 0 108 -7 150 -16z m-247 -425 c168 -42 210
-88 210 -234 0 -102 -22 -153 -81 -192 -37 -24 -53 -28 -138 -31 -89 -3 -100
-2 -151 25 -95 49 -157 161 -166 298 -6 81 5 108 56 143 32 22 42 24 110 18
41 -3 113 -15 160 -27z m-480 -239 c70 -36 130 -79 198 -144 78 -74 81 -98 20
-151 -60 -52 -132 -92 -207 -115 -126 -40 -156 -24 -195 100 -34 105 -44 225
-23 266 20 38 48 63 83 73 34 9 62 2 124 -29z m-441 -49 c88 -46 232 -245 248
-345 9 -60 -8 -81 -88 -106 -118 -36 -214 -50 -334 -50 -137 0 -145 5 -145 89
0 108 76 327 131 381 54 51 125 63 188 31z m629 -305 c-46 -42 -119 -76 -162
-76 -12 0 4 11 35 24 64 26 121 59 139 81 7 8 18 15 24 15 6 -1 -10 -20 -36
-44z m-458 -167 c-88 -60 -194 -84 -303 -69 -118 17 -109 27 29 33 86 3 151
12 194 25 77 23 103 27 80 11z"/>
<path d="M6758 8182 c36 -32 42 -43 37 -64 -4 -15 -17 -36 -30 -48 -21 -20
-27 -21 -60 -10 -20 7 -39 10 -41 7 -3 -3 9 -8 26 -12 17 -4 57 -27 88 -52
l57 -46 -38 40 -38 40 25 38 c14 21 26 45 26 55 0 14 10 16 63 14 l62 -3 -63
8 c-46 6 -76 17 -110 40 l-47 32 43 -39z"/>
<path d="M6540 7780 c14 -11 28 -20 33 -20 12 0 8 -39 -8 -69 -8 -16 -28 -40
-45 -54 -29 -25 -32 -25 -71 -11 -56 19 -74 17 -24 -3 22 -9 74 -38 115 -66
53 -35 68 -42 50 -23 -13 15 -40 37 -58 48 l-34 21 31 24 c34 27 61 71 61 100
0 16 9 18 72 16 l73 -1 -66 7 c-39 4 -82 16 -103 29 -46 27 -59 28 -26 2z"/>
<path d="M6478 7265 c-3 -22 -9 -49 -13 -60 -3 -11 1 -7 10 8 9 15 15 42 13
60 -3 31 -3 31 -10 -8z"/>
<path d="M6340 7080 c-19 -11 -46 -19 -59 -20 -13 0 -22 -3 -18 -6 10 -11 71
5 97 26 31 25 25 25 -20 0z"/>
<path d="M5986 6914 c-26 -19 -69 -41 -95 -48 -25 -8 -39 -15 -30 -15 33 -2
109 32 146 64 48 43 42 42 -21 -1z"/>
<path d="M5505 6757 c-45 -15 -87 -20 -167 -21 -68 -1 -99 -4 -85 -9 62 -24
237 -2 307 38 34 19 17 17 -55 -8z"/>
<path d="M3702 7285 c-1 -16 5 -43 13 -60 12 -24 14 -25 8 -5 -3 14 -10 41
-14 60 -7 34 -7 34 -7 5z"/>
<path d="M3820 7096 c18 -23 71 -46 102 -45 13 0 2 6 -25 13 -26 7 -57 21 -69
32 -22 19 -22 19 -8 0z"/>
<path d="M3729 6553 c-8 -21 -8 -52 1 -118 15 -104 15 -433 1 -730 -8 -147
-16 -221 -31 -280 -12 -44 -24 -119 -27 -168 l-6 -87 41 -39 c45 -43 135 -97
183 -111 56 -16 113 6 164 62 24 27 49 65 56 85 17 51 6 164 -25 248 -17 49
-30 117 -41 225 -34 331 -59 490 -101 649 -53 203 -179 357 -215 264z m75 -24
c69 -60 127 -221 166 -455 22 -139 69 -534 63 -534 -3 0 -15 13 -29 29 -30 35
-82 61 -124 61 -36 0 -92 -31 -115 -63 -8 -11 -16 -19 -18 -16 -1 2 0 69 4
149 11 241 10 678 -2 747 -11 64 -7 113 11 113 5 0 25 -14 44 -31z m154 -949
c48 -34 82 -89 112 -180 42 -125 39 -208 -9 -280 -39 -58 -76 -80 -136 -80
-43 0 -61 7 -125 48 -107 69 -110 73 -110 145 1 88 35 233 68 287 56 91 128
112 200 60z"/>
<path d="M6407 6551 c-105 -93 -169 -327 -222 -821 -19 -172 -33 -255 -51
-310 -31 -91 -41 -202 -25 -253 7 -20 32 -58 56 -85 51 -56 108 -78 164 -62
48 14 138 68 183 111 l41 39 -6 87 c-3 49 -15 124 -27 168 -16 60 -24 131 -31
280 -15 317 -15 638 1 731 22 132 -11 178 -83 115z m68 -20 c3 -16 1 -58 -5
-93 -13 -70 -14 -463 -2 -723 5 -88 6 -162 5 -164 -2 -3 -10 5 -18 16 -23 32
-79 63 -115 63 -43 0 -95 -26 -126 -62 -13 -17 -26 -29 -28 -27 -2 2 8 96 20
209 53 460 106 666 199 769 44 49 61 51 70 12z m-74 -944 c18 -12 46 -43 61
-67 32 -52 67 -199 68 -281 0 -71 -16 -93 -114 -153 -61 -38 -81 -46 -122 -46
-53 0 -89 18 -124 62 -55 71 -63 150 -27 275 29 101 67 166 119 203 50 36 92
38 139 7z"/>
<path d="M4694 6375 c-15 -23 -17 -64 -19 -318 -2 -316 -15 -472 -46 -582 -14
-47 -22 -113 -25 -200 -5 -113 -3 -135 13 -165 31 -60 66 -70 246 -70 88 0
167 5 177 10 11 6 22 25 25 43 7 37 -16 204 -45 322 -10 44 -22 114 -25 155
-22 263 -59 483 -100 605 -60 179 -154 272 -201 200z m95 -34 c93 -117 127
-258 186 -761 l5 -44 -42 41 c-54 51 -77 63 -125 63 -40 0 -66 -14 -117 -59
l-29 -26 7 50 c19 150 27 334 24 526 -2 172 0 219 11 232 22 27 47 20 80 -22z
m97 -747 c21 -15 44 -34 52 -43 46 -58 77 -167 102 -357 19 -141 27 -136 -185
-132 l-175 3 -27 28 c-25 25 -28 35 -32 113 -6 159 24 288 82 353 59 65 121
77 183 35z"/>
<path d="M5431 6369 c-99 -99 -154 -297 -200 -724 -11 -99 -31 -234 -46 -300
-14 -66 -26 -155 -28 -198 -3 -108 -5 -107 197 -107 184 0 218 10 249 70 16
30 18 53 14 160 -3 73 -12 148 -21 180 -32 107 -48 295 -51 602 -2 256 -5 301
-19 323 -22 34 -57 32 -95 -6z m82 -16 c11 -22 13 -70 9 -224 -4 -175 7 -418
25 -534 l6 -40 -37 33 c-44 38 -75 52 -117 52 -40 0 -65 -14 -117 -64 l-44
-41 6 35 c3 19 10 85 16 145 32 323 85 517 172 628 35 44 62 47 81 10z m-55
-747 c97 -51 148 -195 140 -397 -3 -81 -5 -91 -31 -116 l-27 -28 -175 -3
c-212 -4 -204 -9 -185 132 33 254 71 350 158 403 43 26 81 29 120 9z"/>
<path d="M4210 6331 c-14 -28 -13 -48 10 -143 12 -48 23 -138 27 -214 6 -141
-13 -533 -29 -574 -6 -14 -12 -89 -15 -167 l-6 -141 28 -26 c38 -35 83 -46
195 -46 111 0 134 11 150 68 12 48 -2 186 -30 274 -11 36 -27 130 -35 209 -50
486 -103 661 -229 757 -35 27 -52 28 -66 3z m66 -28 c75 -60 126 -182 164
-396 22 -122 50 -352 50 -406 l0 -34 -21 27 c-50 64 -114 69 -182 15 l-38 -31
8 79 c4 43 8 182 8 308 0 204 -3 240 -23 318 -23 91 -27 129 -15 140 9 10 11
9 49 -20z m134 -788 c16 -8 45 -36 64 -61 63 -82 103 -326 63 -387 -17 -26
-19 -27 -120 -27 -87 0 -110 4 -147 23 l-45 22 1 135 c0 153 16 220 62 262 54
50 77 56 122 33z"/>
<path d="M5944 6328 c-126 -96 -178 -267 -229 -753 -8 -82 -24 -178 -35 -212
-29 -93 -43 -225 -30 -273 16 -59 39 -70 150 -70 113 0 155 10 194 47 l29 26
-6 136 c-3 75 -10 150 -16 168 -15 51 -34 445 -28 578 3 68 15 162 28 218 32
138 11 187 -57 135z m54 -27 c2 -12 -7 -63 -20 -114 -20 -82 -23 -116 -23
-317 0 -124 4 -262 8 -308 l8 -83 -38 30 c-67 54 -132 49 -181 -13 -11 -14
-21 -23 -24 -21 -6 7 29 306 52 432 38 212 83 324 158 390 41 36 55 37 60 4z
m-108 -786 c36 -19 74 -68 91 -120 8 -25 13 -92 13 -175 l1 -135 -45 -23 c-40
-20 -57 -22 -150 -20 l-105 3 -18 38 c-17 33 -18 46 -7 127 21 165 63 258 135
302 36 22 48 22 85 3z"/>
<path d="M2819 6323 c-11 -13 -14 -78 -15 -317 -1 -340 -15 -513 -49 -636 -43
-153 -42 -231 4 -284 24 -28 119 -67 176 -73 45 -4 56 -1 111 35 39 25 65 51
74 71 17 41 8 110 -25 203 -18 49 -32 116 -41 203 -47 441 -126 769 -193 805
-25 13 -26 13 -42 -7z m96 -135 c46 -147 86 -370 120 -683 l7 -60 -24 22 c-35
33 -95 55 -129 48 -16 -4 -44 -19 -61 -33 l-31 -26 6 49 c17 123 27 416 21
585 -5 143 -4 192 6 210 l13 24 23 -27 c13 -15 35 -64 49 -109z m65 -718 c45
-32 67 -69 100 -168 41 -122 40 -165 -4 -207 -40 -37 -94 -65 -128 -65 -38 0
-140 38 -165 62 -38 36 -47 80 -33 167 19 119 51 183 115 223 35 22 73 18 115
-12z"/>
<path d="M7348 6323 c-68 -78 -144 -408 -179 -783 -9 -95 -19 -144 -42 -205
-23 -61 -30 -98 -31 -154 -1 -72 0 -74 34 -103 49 -41 104 -68 140 -68 45 0
151 39 181 67 55 51 59 131 14 293 -35 127 -48 291 -49 631 -1 244 -4 309 -15
322 -17 22 -34 21 -53 0z m48 -238 c-6 -181 4 -448 21 -580 l6 -49 -31 26
c-17 14 -45 29 -61 33 -34 7 -94 -15 -129 -48 l-24 -22 7 65 c35 360 111 714
167 785 21 26 22 27 36 9 12 -16 13 -54 8 -219z m-48 -599 c63 -33 102 -105
122 -222 13 -84 3 -138 -33 -172 -25 -24 -126 -62 -165 -62 -34 0 -88 28 -129
67 -35 32 -36 35 -30 90 6 75 50 199 85 242 27 34 85 71 110 71 7 0 25 -6 40
-14z"/>
<path d="M3258 6273 c-30 -19 -51 -60 -51 -101 0 -15 3 -92 7 -172 11 -196 -8
-599 -30 -660 -23 -62 -21 -170 3 -212 10 -18 47 -52 82 -75 49 -34 72 -43
104 -43 85 1 185 71 207 147 11 36 10 53 -3 109 -9 37 -24 80 -32 97 -10 20
-15 60 -15 121 0 200 -42 503 -91 661 -37 120 -110 172 -181 128z m96 -24 c14
-11 34 -35 42 -51 54 -104 114 -477 114 -698 0 -73 -1 -74 -18 -53 -62 78
-195 84 -246 11 -9 -12 -17 -20 -19 -17 -2 2 0 85 5 184 4 99 5 272 2 385 l-6
205 25 28 c31 32 65 35 101 6z m92 -787 c47 -34 86 -104 109 -191 27 -107 6
-157 -89 -211 -81 -47 -140 -36 -231 43 l-40 35 0 94 c0 85 3 100 30 153 54
105 140 135 221 77z"/>
<path d="M6840 6252 c-45 -45 -70 -116 -105 -307 -28 -154 -45 -324 -45 -456
0 -65 -5 -106 -15 -126 -8 -17 -23 -60 -32 -97 -13 -56 -14 -73 -3 -109 22
-76 122 -146 207 -147 32 0 55 9 104 43 35 23 72 57 82 75 24 41 26 149 3 212
-23 64 -42 518 -29 700 10 154 5 188 -38 224 -45 38 -83 34 -129 -12z m125 -9
l27 -28 -6 -210 c-4 -115 -3 -289 2 -385 4 -96 6 -177 5 -179 -2 -3 -10 5 -19
17 -51 73 -184 67 -246 -11 -17 -21 -18 -19 -18 63 0 215 61 586 114 688 20
38 62 72 91 72 12 0 35 -12 50 -27z m-34 -776 c20 -13 46 -47 64 -82 27 -53
30 -68 30 -153 l0 -94 -40 -35 c-91 -79 -150 -90 -231 -43 -95 54 -116 104
-89 211 47 181 162 266 266 196z"/>
<path d="M2140 6225 c-7 -9 -16 -43 -19 -77 l-6 -61 -25 39 c-18 28 -32 39
-50 39 -35 0 -54 -44 -58 -140 -4 -78 1 -107 53 -345 18 -83 23 -303 7 -323
-18 -22 -52 -148 -52 -194 0 -81 34 -122 122 -148 67 -19 121 -9 157 29 l22
24 65 -34 c74 -39 102 -41 159 -15 71 32 80 51 80 155 0 63 -6 108 -19 145
-16 47 -19 88 -20 310 -1 246 -2 259 -26 326 -19 55 -37 82 -82 128 -31 31
-67 61 -80 66 -30 11 -56 -2 -60 -31 -3 -20 -9 -14 -40 33 -53 83 -99 109
-128 74z m57 -20 c36 -25 115 -162 129 -223 25 -107 11 -276 -26 -316 -10 -10
-55 77 -116 225 -41 102 -45 116 -45 199 0 82 11 130 29 130 4 0 17 -7 29 -15z
m-134 -73 c9 -9 32 -64 52 -122 37 -106 168 -390 180 -390 3 0 18 26 33 58 24
51 27 68 27 167 0 67 -7 139 -17 184 -18 79 -16 101 12 101 25 0 106 -74 135
-124 45 -77 55 -151 53 -393 l-3 -220 -38 25 c-42 28 -57 29 -252 15 -66 -5
-130 -14 -142 -21 -12 -7 -23 -12 -25 -12 -2 0 -4 47 -5 103 -1 57 -9 137 -18
178 -54 247 -57 266 -53 344 4 75 19 125 37 125 4 0 15 -8 24 -18z m407 -724
c24 -13 52 -34 62 -48 44 -60 64 -233 32 -278 -19 -27 -85 -62 -117 -62 -22 0
-84 28 -134 60 -20 13 -25 12 -50 -13 -45 -43 -83 -51 -146 -33 -29 8 -64 27
-77 42 -22 23 -25 34 -24 97 1 51 8 89 25 132 33 83 76 105 204 106 49 0 99 4
110 9 34 15 69 11 115 -12z"/>
<path d="M8008 6220 c-14 -11 -41 -43 -59 -72 -29 -45 -34 -49 -37 -30 -4 29
-30 42 -60 31 -13 -5 -49 -35 -80 -66 -45 -46 -63 -73 -82 -128 -24 -67 -25
-81 -26 -327 -2 -221 -4 -264 -20 -310 -13 -36 -19 -82 -19 -146 0 -93 0 -94
32 -122 67 -60 143 -62 228 -4 l38 25 27 -26 c42 -40 90 -49 158 -30 63 19 87
36 109 79 22 42 12 134 -22 219 -23 60 -27 81 -27 180 0 67 7 142 17 187 53
241 57 267 53 345 -8 141 -54 185 -108 101 l-25 -39 -6 61 c-9 91 -38 114 -91
72z m62 -19 c5 -11 10 -61 10 -111 0 -85 -3 -99 -45 -200 -59 -145 -104 -232
-115 -225 -35 22 -51 211 -26 317 20 87 121 238 158 238 4 0 12 -9 18 -19z
m138 -97 c19 -55 9 -203 -23 -333 -29 -120 -47 -271 -39 -330 6 -45 4 -47 -29
-29 -12 7 -76 16 -142 21 -196 14 -210 13 -253 -16 l-39 -25 -1 221 c-2 306
16 379 119 471 90 81 113 51 72 -93 -24 -85 -15 -240 19 -313 15 -32 30 -58
33 -58 12 0 135 267 175 380 57 158 82 182 108 104z m-233 -692 c142 -9 170
-24 204 -107 17 -43 24 -81 25 -132 1 -63 -2 -74 -24 -97 -13 -15 -48 -34 -77
-42 -63 -18 -101 -10 -146 33 -25 25 -30 26 -50 13 -50 -32 -112 -60 -134 -60
-32 0 -98 35 -117 62 -32 45 -12 218 32 278 28 39 100 72 142 65 19 -3 85 -9
145 -13z"/>
<path d="M1377 6205 c-9 -8 -18 -28 -22 -44 -3 -16 -13 -35 -21 -42 -22 -18
-55 -86 -70 -144 -18 -65 -17 -210 1 -360 21 -174 19 -209 -11 -272 -28 -57
-41 -126 -30 -167 3 -14 20 -42 38 -61 56 -64 111 -79 181 -50 34 14 37 14 64
-9 44 -37 68 -46 118 -46 65 0 119 32 145 85 24 49 25 101 5 187 -23 101 -34
185 -49 365 -8 96 -21 190 -31 218 -39 114 -146 270 -193 282 -15 3 -41 21
-58 40 -35 37 -46 40 -67 18z m57 -38 c17 -22 26 -47 26 -70 0 -20 12 -76 26
-124 28 -95 43 -270 27 -312 -9 -22 -11 -20 -32 30 -29 66 -48 170 -58 314 -7
101 -10 111 -30 120 -26 11 -27 14 -13 49 13 34 24 33 54 -7z m111 -79 c94
-110 142 -227 155 -382 14 -162 30 -307 37 -336 6 -24 6 -24 -12 -7 -38 38
-67 49 -177 63 -119 16 -171 13 -219 -12 l-29 -15 0 48 c0 26 -7 106 -16 178
-21 168 -15 318 15 396 24 63 50 92 78 87 15 -3 19 -18 26 -108 12 -166 32
-264 69 -338 18 -37 38 -67 43 -67 15 1 27 111 21 205 -3 47 -15 119 -26 160
-12 41 -24 96 -27 123 -7 61 12 63 62 5z m36 -687 c116 -12 174 -73 186 -194
10 -112 -41 -177 -141 -177 -38 0 -57 6 -85 28 -50 38 -62 41 -100 26 -48 -20
-80 -17 -124 9 -52 32 -77 72 -77 127 0 55 39 143 72 162 70 40 71 40 269 19z"/>
<path d="M8776 6187 c-17 -19 -43 -37 -58 -40 -55 -14 -179 -210 -206 -327 -6
-25 -13 -92 -17 -150 -7 -123 -30 -300 -51 -385 -40 -170 18 -275 151 -275 50
0 74 9 118 46 27 23 30 23 64 9 70 -29 125 -14 181 50 18 19 35 47 38 61 11
42 -2 112 -30 165 -31 60 -32 90 -11 274 18 157 19 275 4 347 -13 58 -49 137
-73 157 -8 7 -18 26 -21 42 -7 31 -29 59 -47 59 -6 0 -25 -15 -42 -33z m64
-13 c13 -34 13 -44 -4 -44 -27 0 -35 -28 -45 -170 -11 -151 -19 -192 -54 -274
-17 -40 -22 -46 -28 -30 -21 54 -2 249 35 353 9 24 16 62 16 84 0 28 8 50 26
74 30 40 41 41 54 7z m-100 -76 c0 -18 -12 -71 -26 -118 -15 -51 -27 -123 -30
-180 -6 -101 4 -200 21 -201 6 -1 24 28 42 62 36 72 58 180 70 339 7 90 11
105 26 108 28 5 54 -24 78 -87 30 -78 35 -220 15 -393 -9 -75 -16 -158 -16
-183 l0 -46 -29 15 c-48 25 -100 28 -220 12 -90 -12 -121 -20 -149 -40 -20
-14 -37 -24 -38 -23 -1 1 4 47 11 102 7 55 18 156 23 225 14 170 59 284 157
398 45 51 65 54 65 10z m150 -707 c24 -12 43 -33 63 -71 47 -92 30 -174 -46
-224 -46 -29 -79 -33 -129 -12 -37 16 -37 16 -109 -31 -71 -47 -175 -20 -206
55 -20 49 -12 149 18 201 29 53 91 91 149 92 25 0 63 4 85 9 53 11 132 3 175
-19z"/>
<path d="M582 6048 c-7 -7 -12 -20 -12 -30 0 -13 -8 -18 -25 -18 -41 0 -48
-36 -25 -122 33 -123 44 -272 31 -399 -7 -61 -19 -130 -28 -153 -9 -22 -18
-72 -20 -111 -3 -59 0 -76 19 -110 44 -76 133 -109 173 -65 30 33 50 33 111
-1 96 -55 167 -40 210 43 18 34 18 104 0 154 -7 22 -16 82 -20 134 -16 205
-41 330 -87 423 -53 107 -150 203 -165 162 -9 -23 -19 -18 -49 25 -15 22 -42
49 -60 60 -38 24 -38 23 -53 8z m103 -86 c44 -60 73 -134 87 -229 8 -55 8 -77
-1 -86 -8 -8 -11 -5 -11 14 0 68 -65 210 -127 280 -28 30 -43 56 -43 73 0 26
0 26 30 11 17 -9 46 -37 65 -63z m-75 -30 c77 -80 116 -176 145 -355 16 -101
51 63 35 170 -5 38 -16 88 -25 112 -30 85 -12 105 42 49 97 -103 145 -250 167
-516 l6 -74 -42 35 c-72 58 -106 71 -184 72 -60 0 -80 -5 -133 -32 l-62 -32 8
72 c13 116 7 304 -12 387 -10 41 -20 94 -22 118 -4 35 -2 42 13 42 10 0 39
-22 64 -48z m235 -546 c28 -12 65 -36 84 -52 64 -53 98 -168 71 -238 -28 -74
-104 -88 -196 -36 -57 33 -89 33 -120 -1 -25 -28 -68 -24 -108 11 -44 39 -59
86 -54 161 5 67 32 105 103 141 86 45 147 48 220 14z"/>
<path d="M9577 6035 c-20 -14 -37 -29 -37 -33 0 -4 -12 -20 -25 -35 -23 -26
-27 -27 -41 -13 -21 21 -41 10 -93 -52 -96 -115 -135 -249 -157 -532 -3 -47
-12 -104 -20 -128 -18 -56 -18 -124 2 -164 38 -79 113 -93 208 -39 61 34 81
34 111 1 40 -44 129 -10 172 65 29 52 31 144 4 206 -30 69 -46 266 -32 391 6
55 18 128 27 161 8 32 14 75 12 96 -3 31 -7 36 -30 39 -19 2 -28 9 -28 21 0
16 -18 41 -30 41 -3 0 -22 -11 -43 -25z m53 -21 c0 -17 -16 -43 -43 -73 -61
-69 -127 -212 -127 -279 0 -14 -4 -21 -11 -17 -14 10 -1 125 22 194 24 69 72
144 113 176 39 31 46 31 46 -1z m57 -76 c-2 -24 -12 -77 -22 -118 -19 -83 -25
-271 -12 -387 l8 -72 -62 32 c-53 27 -73 32 -133 32 -78 -1 -112 -14 -184 -73
l-44 -35 7 69 c26 281 66 409 162 515 58 64 79 46 48 -41 -28 -79 -37 -169
-25 -242 18 -104 28 -99 45 22 16 113 78 243 145 304 55 50 73 48 67 -6z
m-106 -558 c87 -44 119 -90 119 -170 0 -64 -18 -109 -59 -143 -38 -32 -81 -35
-105 -8 -31 34 -62 34 -121 1 -89 -51 -158 -42 -189 24 -67 142 86 336 255
323 30 -3 75 -15 100 -27z"/>
<path d="M4796 4829 c-23 -18 -26 -27 -26 -84 0 -35 9 -114 19 -177 26 -150
60 -528 69 -760 8 -198 16 -227 56 -212 62 24 101 254 112 664 3 118 12 244
19 280 7 36 16 111 20 166 7 95 6 103 -14 123 -19 19 -33 21 -125 21 -89 0
-107 -3 -130 -21z m245 -23 c15 -33 -5 -234 -32 -321 -16 -52 -27 -70 -52 -86
-38 -23 -73 -18 -103 16 -25 27 -52 159 -61 295 -6 83 -5 88 18 103 18 13 46
17 121 17 94 0 99 -1 109 -24z m-41 -706 c-16 -267 -40 -412 -77 -469 -30 -46
-39 -6 -46 186 -6 161 -30 489 -41 554 l-5 26 37 -19 c41 -21 71 -17 112 12
l25 19 3 -62 c2 -34 -2 -145 -8 -247z"/>
<path d="M5170 4830 c-21 -21 -22 -28 -16 -119 4 -53 13 -130 21 -171 7 -41
16 -169 19 -285 11 -405 50 -635 112 -659 40 -15 48 15 56 207 10 266 38 574
72 792 9 55 16 125 16 156 0 84 -15 93 -150 97 -101 3 -110 2 -130 -18z m239
-17 c23 -15 24 -20 18 -107 -8 -115 -34 -254 -53 -284 -35 -54 -116 -46 -148
15 -34 68 -68 332 -47 372 11 19 20 21 109 21 75 0 103 -4 121 -17z m-118
-448 c14 -3 38 2 61 13 l37 19 -5 -26 c-11 -67 -35 -384 -41 -549 -7 -197 -16
-237 -46 -191 -20 31 -43 119 -57 217 -13 97 -30 371 -30 480 l0 83 28 -20
c16 -11 39 -22 53 -26z"/>
<path d="M4391 4814 c-17 -22 -21 -41 -21 -108 0 -44 6 -124 14 -176 39 -262
74 -613 82 -840 8 -182 13 -210 44 -210 63 0 103 249 116 730 3 134 12 266 20
307 18 90 19 294 2 311 -8 8 -50 12 -124 12 -110 0 -113 -1 -133 -26z m244
-139 c-1 -151 -14 -211 -62 -287 -27 -44 -56 -49 -97 -17 -39 30 -56 71 -72
168 -19 118 -18 230 2 259 15 21 21 23 122 20 l107 -3 0 -140z m-29 -487 c-8
-233 -21 -417 -38 -518 -12 -75 -45 -170 -59 -170 -14 0 -17 32 -24 212 -3 92
-15 252 -25 355 -11 103 -23 217 -26 253 l-7 64 32 -27 c42 -35 84 -36 116 -1
14 15 25 31 25 35 0 5 3 9 6 9 4 0 3 -96 0 -212z"/>
<path d="M5572 4828 c-17 -17 -16 -221 2 -311 8 -41 17 -173 21 -307 13 -484
51 -730 115 -730 29 0 40 37 40 140 0 158 52 706 90 940 5 30 9 95 9 143 1 81
-1 90 -24 112 -23 23 -31 25 -133 25 -71 0 -112 -4 -120 -12z m242 -30 c30
-42 10 -302 -27 -375 -21 -40 -63 -73 -93 -73 -28 0 -61 47 -88 125 -18 51
-35 297 -23 329 5 13 26 16 111 16 97 0 106 -2 120 -22z m-154 -458 c32 -17
67 -11 99 16 38 32 37 44 12 -186 -24 -211 -41 -441 -41 -547 0 -133 -16 -156
-48 -70 -38 102 -58 290 -67 637 -5 198 -4 213 10 188 8 -15 24 -32 35 -38z"/>
<path d="M3984 4810 c-39 -16 -152 -130 -175 -177 -19 -38 -21 -55 -16 -117 4
-39 13 -91 21 -116 20 -58 56 -418 63 -630 4 -108 1 -206 -7 -285 -19 -167
-18 -179 3 -183 28 -6 84 37 122 93 79 116 119 319 150 758 12 170 19 223 41
290 49 154 17 263 -98 338 -64 41 -70 43 -104 29z m103 -51 c67 -47 103 -114
103 -196 0 -47 -48 -192 -79 -237 -56 -83 -129 -103 -195 -52 -57 43 -106 173
-106 280 0 63 63 155 149 215 50 35 63 34 128 -10z m36 -641 c-31 -456 -94
-697 -200 -772 -24 -16 -45 -27 -48 -24 -3 3 0 39 7 79 19 111 14 514 -9 727
-17 164 -16 195 6 153 6 -10 31 -29 55 -41 39 -19 50 -20 87 -10 24 7 56 26
73 44 17 17 33 31 36 30 3 -1 0 -85 -7 -186z"/>
<path d="M6133 4781 c-116 -75 -148 -183 -99 -337 21 -67 29 -120 41 -300 18
-264 29 -355 60 -499 26 -121 45 -179 71 -222 43 -69 121 -132 146 -117 7 4 8
31 4 78 -3 39 -9 134 -12 211 -4 77 -11 145 -16 150 -12 12 -2 -292 12 -367 6
-28 8 -53 6 -56 -3 -2 -20 5 -38 16 -117 72 -179 297 -208 752 -6 96 -13 186
-16 199 -5 23 -3 22 35 -12 22 -20 58 -41 81 -47 36 -10 47 -8 86 10 24 12 49
31 55 41 22 42 24 12 8 -143 -25 -256 -32 -368 -21 -368 5 0 13 39 16 88 20
252 49 508 62 545 24 67 29 176 11 219 -27 64 -146 180 -198 193 -18 4 -40 -4
-86 -34z m139 -20 c67 -48 128 -133 135 -190 7 -48 -11 -145 -37 -205 -23 -54
-79 -112 -115 -118 -83 -16 -148 47 -196 190 -27 81 -31 104 -25 155 4 40 15
74 31 98 28 43 110 103 146 108 3 1 30 -17 61 -38z"/>
<path d="M2388 4796 c-20 -8 -48 -22 -62 -31 -25 -17 -28 -16 -75 4 -68 29
-118 27 -182 -7 -41 -21 -64 -27 -96 -24 -35 3 -46 0 -67 -22 -24 -23 -26 -32
-26 -116 0 -67 6 -105 22 -152 20 -57 22 -82 23 -263 0 -217 -12 -303 -62
-440 -79 -219 -44 -279 95 -160 56 49 103 120 193 292 81 155 98 171 120 106
23 -67 16 -150 -19 -230 -37 -83 -41 -140 -13 -174 l19 -24 37 20 c74 39 147
151 181 276 17 64 20 153 14 394 -3 119 4 156 46 255 37 87 44 191 15 237 -38
61 -99 83 -163 59z m116 -35 c59 -51 61 -157 5 -269 -40 -79 -56 -86 -189 -77
-63 5 -94 2 -120 -9 -20 -8 -77 -16 -132 -17 -83 -3 -99 -1 -117 15 -31 28
-51 108 -51 203 0 77 2 84 25 99 17 11 37 15 61 11 28 -5 44 0 76 20 57 39
129 42 192 9 l49 -25 27 20 c63 47 134 55 174 20z m-34 -431 c-4 -41 -3 -115
2 -165 25 -230 -24 -418 -138 -532 -58 -59 -80 -65 -90 -28 -9 37 0 82 32 155
46 109 34 262 -22 276 -35 9 -50 -8 -104 -117 -109 -215 -173 -304 -268 -367
-20 -13 -25 -13 -33 -1 -16 25 -10 61 31 178 54 161 74 304 68 498 -5 151 -5
151 16 144 31 -12 195 -2 239 15 29 11 62 13 125 9 48 -3 101 -2 117 3 17 5
31 9 31 8 1 -1 -2 -35 -6 -76z"/>
<path d="M7722 4791 c-82 -52 -94 -157 -33 -305 40 -99 49 -190 37 -353 -19
-248 48 -448 183 -548 45 -32 57 -32 76 5 20 39 19 73 -5 120 -29 56 -53 168
-45 210 24 138 43 133 129 -32 125 -243 212 -348 289 -352 28 -1 33 3 41 34 7
29 2 53 -27 137 -62 179 -72 243 -71 473 0 183 2 212 22 274 16 48 22 93 22
153 0 77 -2 86 -26 109 -21 22 -32 25 -67 22 -32 -3 -55 3 -96 24 -64 34 -118
36 -181 7 l-44 -20 -52 26 c-72 36 -112 40 -152 16z m133 -29 c17 -8 37 -21
46 -29 14 -12 23 -10 65 12 63 34 134 31 192 -8 32 -20 48 -25 76 -20 24 4 44
0 61 -11 23 -15 25 -22 25 -99 0 -95 -20 -175 -51 -203 -18 -16 -34 -18 -117
-15 -56 1 -112 9 -132 18 -26 11 -57 13 -120 9 -134 -9 -149 -3 -189 76 -40
81 -53 177 -28 224 37 72 91 86 172 46z m41 -368 c61 5 91 3 120 -8 44 -16
208 -27 239 -16 20 7 20 3 20 -199 1 -229 15 -318 74 -466 31 -77 38 -128 22
-154 -7 -12 -15 -10 -42 7 -84 52 -150 145 -259 362 -48 97 -66 120 -91 120
-29 0 -47 -26 -59 -87 -14 -68 -3 -136 35 -216 35 -75 31 -157 -7 -157 -20 0
-102 89 -133 144 -61 111 -69 161 -70 437 l0 246 35 -10 c19 -5 72 -6 116 -3z"/>
<path d="M1582 4765 c-34 -19 -68 -35 -74 -35 -6 0 -32 10 -57 22 -68 33 -138
35 -180 6 -75 -51 -84 -108 -51 -333 42 -288 37 -381 -30 -540 -61 -145 -65
-218 -12 -232 41 -10 130 93 217 252 39 71 78 138 87 149 17 21 17 21 18 -9 0
-39 -34 -180 -65 -272 -29 -82 -31 -115 -10 -133 36 -30 121 23 169 105 53 89
119 335 166 615 12 69 28 144 36 168 18 54 18 153 0 196 -35 83 -111 98 -214
41z m165 -7 c34 -38 43 -64 43 -125 0 -79 -14 -124 -51 -159 -30 -28 -32 -29
-142 -30 -63 0 -124 -5 -140 -12 -72 -30 -167 -1 -212 65 -20 31 -25 49 -25
104 0 73 23 122 70 147 33 17 107 9 159 -17 53 -27 78 -26 124 4 75 52 140 60
174 23z m-484 -309 c50 -49 117 -60 201 -35 34 10 74 13 135 9 71 -5 93 -2
120 12 l34 17 -7 -54 c-12 -89 -65 -343 -91 -430 -52 -180 -94 -259 -158 -298
-71 -43 -79 -19 -38 113 64 210 76 302 36 302 -13 0 -33 -24 -68 -85 -123
-211 -143 -242 -185 -285 -25 -25 -51 -45 -58 -45 -16 0 -27 52 -19 90 4 17
22 66 41 111 41 93 64 190 64 271 0 56 -25 276 -36 311 -7 23 2 22 29 -4z"/>
<path d="M8465 4778 c-15 -12 -34 -36 -41 -54 -18 -43 -18 -142 1 -196 8 -24
21 -88 30 -143 28 -172 76 -386 111 -494 52 -158 114 -242 192 -257 27 -6 33
-3 43 20 11 22 8 41 -19 129 -39 125 -62 222 -62 262 1 29 1 29 16 10 8 -11
49 -79 90 -152 74 -131 157 -236 195 -248 61 -20 68 89 13 217 -40 93 -64 201
-64 286 0 32 11 136 25 232 14 96 25 197 25 225 0 61 -25 112 -71 143 -42 29
-112 27 -180 -6 -49 -24 -84 -28 -94 -12 -4 6 -28 22 -55 35 -62 31 -118 32
-155 3z m173 -36 c58 -38 79 -39 135 -10 57 29 146 31 177 3 33 -29 50 -77 50
-142 0 -46 -5 -66 -25 -96 -45 -66 -140 -95 -212 -65 -15 6 -78 12 -140 12
-109 1 -112 2 -142 30 -36 34 -51 80 -51 153 0 60 13 99 43 131 31 33 98 26
165 -16z m347 -294 c-16 -75 -26 -156 -31 -248 -7 -129 8 -211 65 -345 49
-115 54 -185 13 -185 -23 0 -95 85 -148 175 -25 44 -67 116 -93 160 -46 79
-75 102 -88 69 -10 -27 15 -158 53 -273 38 -114 41 -139 20 -147 -40 -15 -113
56 -158 154 -44 98 -148 534 -148 623 0 19 1 19 32 3 26 -13 50 -16 119 -11
61 4 101 1 135 -9 84 -25 153 -13 199 34 26 27 37 27 30 0z"/>
<path d="M2890 4782 c-24 -7 -133 -73 -157 -95 -36 -32 -48 -105 -30 -190 9
-39 21 -119 27 -177 6 -58 25 -186 41 -285 22 -127 32 -233 37 -362 6 -149 10
-186 24 -199 35 -35 82 13 131 137 56 140 74 241 87 483 11 188 21 271 46 374
21 85 21 175 1 206 -18 27 -121 93 -164 105 -16 4 -35 6 -43 3z m124 -66 c75
-49 88 -79 75 -170 -11 -82 -41 -155 -77 -189 -39 -37 -99 -60 -139 -52 -73
13 -144 122 -157 242 -9 73 10 112 74 155 114 77 124 77 224 14z m-156 -426
c54 -17 108 -2 159 43 l36 32 -7 -50 c-3 -27 -11 -129 -16 -225 -5 -96 -18
-220 -29 -275 -31 -160 -107 -335 -146 -335 -19 0 -23 33 -29 225 -4 111 -14
213 -35 335 -16 96 -32 202 -36 235 -3 33 -8 71 -11 85 -5 22 -1 20 33 -16 24
-26 54 -47 81 -54z"/>
<path d="M3337 4731 c-118 -94 -122 -105 -87 -253 47 -201 62 -515 39 -788
-11 -119 -10 -139 4 -173 14 -33 21 -38 43 -35 41 5 81 63 119 176 58 173 106
421 135 692 6 58 18 124 26 148 23 69 19 135 -11 171 -40 46 -144 121 -170
121 -14 0 -55 -25 -98 -59z m177 -8 c34 -25 69 -56 78 -67 41 -49 7 -196 -62
-269 -31 -34 -44 -40 -88 -45 -44 -4 -58 -1 -91 21 -46 30 -77 90 -93 176 -8
45 -9 67 0 85 15 33 152 146 176 146 11 0 47 -21 80 -47z m-164 -382 c39 -23
108 -28 143 -10 12 6 35 23 51 38 l29 26 -7 -78 c-18 -203 -91 -554 -146 -700
-23 -61 -63 -117 -85 -117 -7 0 -18 14 -26 32 -10 25 -10 54 -1 152 17 165 15
427 -3 571 -18 145 -18 143 -2 123 6 -9 28 -26 47 -37z"/>
<path d="M6732 4770 c-18 -11 -57 -44 -87 -73 -52 -50 -55 -56 -55 -103 0 -28
6 -73 14 -100 8 -27 24 -128 36 -224 36 -296 104 -586 156 -670 17 -28 18 -30
-24 101 -51 158 -145 689 -122 689 4 0 15 -9 26 -21 61 -68 183 -63 243 9 12
15 13 13 7 -18 -27 -167 -31 -442 -10 -740 4 -65 2 -89 -8 -104 -19 -25 -51
-14 -77 27 -22 35 -26 32 -11 -7 12 -33 53 -59 79 -51 37 11 45 64 31 204 -24
241 -2 630 46 816 17 65 14 126 -8 152 -30 37 -161 133 -181 133 -12 0 -37 -9
-55 -20z m140 -56 c97 -78 104 -92 91 -168 -22 -129 -84 -206 -166 -206 -74 0
-130 49 -166 145 -23 62 -27 141 -8 166 25 33 141 119 160 119 11 0 51 -25 89
-56z"/>
<path d="M7279 4776 c-51 -18 -146 -82 -160 -108 -17 -30 -14 -134 5 -201 23
-81 36 -187 46 -377 11 -202 21 -273 56 -389 33 -110 68 -182 105 -217 l31
-29 22 26 c22 25 24 38 29 200 4 127 13 223 35 355 17 99 36 229 42 290 6 60
18 139 27 177 14 59 14 74 2 120 -13 48 -19 55 -84 99 -91 61 -113 69 -156 54z
m133 -62 c37 -24 72 -53 79 -66 18 -32 15 -134 -5 -188 -56 -151 -165 -199
-264 -115 -69 60 -119 226 -88 299 22 53 155 132 196 118 8 -3 45 -25 82 -48z
m56 -416 c-5 -40 -22 -154 -39 -253 -23 -135 -32 -226 -36 -362 -3 -100 -10
-187 -14 -195 -22 -34 -80 52 -123 182 -38 115 -56 228 -66 418 -5 95 -12 196
-16 225 l-7 52 36 -32 c76 -67 170 -66 232 3 16 18 33 33 36 33 3 1 2 -32 -3
-71z"/>
<path d="M830 4753 c-59 -18 -82 -19 -173 -8 -44 6 -68 3 -103 -10 -24 -9 -55
-14 -68 -11 -48 12 -96 -54 -96 -132 0 -22 9 -68 20 -103 16 -50 21 -92 21
-194 1 -210 -33 -314 -138 -421 -77 -78 -72 -114 16 -114 90 0 203 94 302 253
48 77 51 80 44 42 -13 -74 -38 -137 -99 -250 -103 -190 165 -58 286 141 64
104 128 338 128 465 0 19 12 69 26 110 45 130 32 204 -41 235 -42 17 -56 17
-125 -3z m142 -30 c40 -36 41 -83 2 -205 l-16 -48 -84 0 c-65 0 -98 -6 -150
-25 -46 -17 -86 -25 -133 -25 -87 0 -129 21 -159 80 -46 88 -10 220 54 204 13
-3 44 2 68 11 35 13 59 16 103 10 88 -10 123 -9 183 8 62 18 105 15 132 -10z
m-22 -305 c0 -65 -30 -230 -56 -306 -35 -104 -76 -179 -135 -245 -76 -85 -209
-165 -209 -126 0 6 18 44 39 83 48 87 89 204 93 270 5 73 -15 69 -55 -11 -64
-127 -179 -257 -254 -289 -18 -8 -48 -14 -68 -14 -58 0 -56 24 8 88 105 107
139 208 139 420 0 78 1 142 2 142 2 0 18 -7 35 -16 46 -23 189 -15 251 14 34
17 65 22 128 22 l82 0 0 -32z"/>
<path d="M9263 4756 c-71 -32 -84 -92 -44 -217 16 -52 32 -130 36 -174 25
-306 155 -539 358 -641 49 -25 51 -26 64 -8 17 24 10 55 -26 114 -41 68 -91
205 -91 250 0 8 14 -10 32 -40 63 -110 146 -205 220 -249 30 -18 49 -21 100
-19 56 3 63 5 66 25 2 16 -12 38 -50 76 -106 108 -141 213 -140 422 1 102 5
144 21 194 12 35 21 81 21 103 0 78 -48 144 -97 132 -13 -4 -41 1 -63 10 -47
19 -107 21 -160 5 -30 -9 -47 -8 -86 5 -75 24 -125 28 -161 12z m155 -33 c43
-13 60 -14 91 -4 53 16 114 14 161 -5 22 -9 51 -14 63 -10 18 4 30 -1 48 -20
20 -22 24 -36 24 -92 0 -121 -53 -172 -177 -172 -48 0 -87 7 -134 25 -51 19
-85 25 -149 25 l-83 0 -20 63 c-32 98 -34 118 -15 157 32 63 71 69 191 33z
m62 -295 c62 -29 205 -37 251 -14 17 9 33 16 34 16 2 0 2 -62 2 -137 -1 -210
37 -324 139 -425 67 -66 70 -88 14 -88 -56 0 -96 19 -158 75 -62 56 -127 144
-171 233 -38 75 -57 77 -53 7 5 -70 46 -190 92 -269 22 -37 40 -74 40 -82 0
-24 -33 -15 -97 26 -155 102 -252 275 -289 520 -7 52 -14 110 -14 128 l0 32
83 0 c62 0 93 -5 127 -22z"/>
<path d="M5235 3284 c-86 -32 -101 -74 -69 -198 34 -132 105 -224 164 -211 61
13 178 198 188 298 4 40 1 52 -18 72 -48 51 -180 70 -265 39z m201 -13 c17
-11 17 -12 -6 -7 -14 3 -61 6 -105 7 -57 0 -74 3 -60 10 27 12 147 5 171 -10z
m4 -22 c66 -14 80 -39 61 -107 -16 -60 -73 -163 -118 -213 -42 -47 -81 -52
-118 -15 -64 64 -126 267 -96 314 18 30 175 42 271 21z"/>
<path d="M5270 3201 c-19 -7 -8 -9 45 -10 39 -1 81 -4 95 -7 22 -5 23 -4 7 6
-23 15 -115 22 -147 11z"/>
<path d="M4841 3260 c-66 -24 -78 -34 -86 -71 l-7 -30 -16 33 c-14 27 -28 36
-77 51 -124 38 -226 18 -291 -57 -32 -37 -35 -46 -32 -86 l5 -45 -50 24 c-37
18 -70 26 -131 29 -76 3 -84 2 -127 -26 -35 -23 -54 -45 -78 -93 -36 -73 -38
-87 -11 -138 33 -65 145 -138 267 -174 65 -20 101 -11 130 32 35 51 42 184 17
289 -6 22 6 13 62 -47 91 -98 137 -131 183 -131 44 0 75 20 97 62 18 36 43
161 44 228 l1 45 19 -52 c28 -80 81 -173 121 -215 64 -68 132 -42 185 70 54
114 69 222 37 260 -21 25 -128 62 -175 62 -18 -1 -57 -9 -87 -20z m176 -9 c6
-3 -33 -6 -88 -7 -54 0 -97 1 -96 3 19 19 150 22 184 4z m-413 -10 c3 -4 -21
-11 -52 -14 -32 -2 -87 -16 -121 -30 -59 -24 -61 -24 -44 -5 30 34 93 58 155
58 31 0 59 -4 62 -9z m466 -21 c37 -10 46 -48 31 -123 -25 -121 -99 -237 -151
-237 -33 0 -86 57 -128 138 -66 128 -76 203 -29 218 66 21 206 23 277 4z
m-360 -20 c24 -24 25 -62 5 -189 -18 -110 -36 -154 -71 -170 -55 -25 -86 -12
-169 68 -95 92 -127 136 -132 185 l-5 44 51 26 c73 37 145 55 229 55 59 1 76
-3 92 -19z m-445 -123 c71 -25 80 -48 80 -209 l0 -140 -28 -24 c-35 -30 -70
-30 -151 0 -158 60 -247 149 -226 228 17 62 67 128 113 149 48 23 141 21 212
-4z"/>
<path d="M4867 3171 c-10 -3 23 -7 73 -7 50 0 83 4 73 7 -10 4 -43 8 -73 8
-30 0 -63 -4 -73 -8z"/>
<path d="M4510 3151 c-52 -17 -123 -50 -108 -51 4 0 19 5 35 12 15 6 64 21
108 34 51 14 69 23 50 23 -16 0 -55 -8 -85 -18z"/>
<path d="M4124 2995 c-27 -14 -65 -41 -84 -61 l-35 -37 40 31 c22 17 65 45 95
61 66 37 54 41 -16 6z"/>
<path d="M5610 3261 c-29 -11 -60 -27 -67 -37 -17 -24 -16 -112 2 -219 24
-135 46 -165 122 -165 51 0 113 45 212 154 33 37 42 43 37 25 -4 -13 -10 -71
-13 -129 -11 -206 46 -248 233 -172 39 16 87 41 106 55 50 38 56 33 15 -12
-43 -47 -77 -148 -77 -226 0 -62 24 -99 78 -122 36 -15 144 -19 209 -7 l38 6
-45 -30 c-122 -81 -153 -169 -97 -278 22 -43 87 -99 132 -114 91 -30 287 19
371 92 46 41 74 103 74 167 0 59 -15 94 -57 132 -56 53 -90 63 -200 64 l-101
0 29 18 c17 11 42 45 60 83 50 102 33 173 -57 237 -78 55 -205 72 -281 37
l-42 -19 26 41 c31 46 33 91 8 134 -9 16 -13 20 -10 9 21 -60 17 -100 -13
-140 -54 -74 -260 -170 -319 -149 -54 19 -68 55 -68 172 0 142 18 193 78 217
50 20 141 30 190 21 23 -4 52 -23 83 -54 37 -36 43 -40 26 -15 -44 63 -77 80
-156 82 -75 2 -156 -17 -185 -43 -17 -15 -17 -13 -14 36 4 47 1 57 -26 90 -65
76 -182 99 -301 59z m197 -2 c31 -12 97 -59 90 -65 -2 -2 -22 5 -44 16 -48 23
-115 39 -161 40 -20 0 -31 4 -27 10 8 13 106 13 142 -1z m-52 -31 c60 -13 134
-44 158 -65 39 -36 14 -99 -72 -190 -117 -122 -184 -151 -236 -99 -30 30 -42
75 -56 208 -11 95 -10 110 4 132 24 35 84 40 202 14z m777 -419 c50 -13 119
-67 141 -109 23 -44 16 -96 -20 -163 -44 -80 -150 -126 -291 -127 -74 0 -120
17 -151 56 -20 25 -22 37 -18 89 10 128 80 240 163 263 41 11 114 8 176 -9z
m231 -380 c62 -13 126 -59 152 -110 33 -62 8 -166 -51 -220 -61 -55 -171 -99
-269 -106 -63 -5 -75 -2 -125 24 -78 41 -115 103 -115 191 l0 64 58 54 c109
101 210 131 350 103z"/>
<path d="M5728 3164 c46 -13 97 -31 112 -39 38 -20 50 -19 21 1 -34 24 -151
64 -186 63 -20 0 -1 -9 53 -25z"/>
<path d="M6295 2650 c-23 -24 -33 -40 -25 -40 8 0 24 -17 35 -38 13 -24 34
-44 62 -57 23 -11 43 -27 43 -35 0 -12 3 -11 11 3 5 9 27 26 47 38 38 21 32
21 -29 -1 -33 -12 -40 -11 -70 6 -38 22 -76 83 -66 105 4 8 14 24 23 37 25 33
13 27 -31 -18z"/>
<path d="M6540 2314 c-36 -13 -55 -24 -44 -24 19 0 22 -7 27 -77 5 -70 3 -80
-15 -95 -25 -22 -10 -24 20 -2 13 9 22 11 22 4 0 -5 16 -18 35 -27 19 -9 35
-21 35 -26 0 -4 12 0 28 11 15 11 37 23 50 27 13 4 21 9 19 11 -2 3 -23 -3
-47 -12 -39 -16 -44 -16 -76 0 -39 18 -64 65 -64 120 0 45 16 86 33 86 7 0 22
7 33 15 24 18 22 18 -56 -11z"/>
<path d="M6070 3030 c8 -5 20 -10 25 -10 6 0 3 5 -5 10 -8 5 -19 10 -25 10 -5
0 -3 -5 5 -10z"/>
<path d="M6141 2997 c19 -12 55 -37 80 -56 l44 -35 -30 32 c-28 31 -105 82
-122 82 -4 0 8 -11 28 -23z"/>
<path d="M3719 2814 c-58 -17 -134 -84 -149 -130 -7 -20 -9 -51 -5 -72 10 -53
50 -127 82 -150 l28 -20 -65 5 c-185 15 -316 -83 -297 -222 8 -57 27 -93 72
-138 40 -40 159 -93 244 -109 111 -21 220 35 267 137 50 106 18 181 -116 278
-19 14 -20 17 -5 11 32 -11 160 -17 199 -10 20 4 51 22 71 40 33 31 35 37 35
94 0 122 -59 241 -141 282 -46 24 -150 26 -220 4z m193 -6 c49 -15 111 -82
133 -146 9 -26 19 -76 22 -112 5 -60 3 -68 -20 -96 -48 -57 -163 -69 -293 -30
-74 23 -115 55 -147 113 -34 63 -38 127 -11 172 50 85 203 133 316 99z m-267
-379 c80 -15 127 -40 195 -107 70 -68 82 -108 55 -178 -51 -135 -175 -184
-336 -134 -149 46 -231 128 -233 233 -1 114 88 187 240 196 11 0 47 -4 79 -10z"/>
<path d="M3939 2656 c13 -23 20 -48 17 -61 -16 -62 -96 -108 -140 -81 -11 8
-32 17 -46 20 -18 5 -14 1 12 -14 20 -11 44 -30 52 -42 11 -16 16 -18 16 -7 0
8 18 23 40 33 26 11 48 31 63 57 12 21 27 40 34 41 6 2 -7 23 -30 48 l-41 45
23 -39z"/>
<path d="M3674 2316 c11 -9 26 -16 33 -16 20 0 17 -125 -4 -161 -26 -44 -66
-56 -121 -36 -25 10 -47 15 -49 13 -3 -2 6 -7 19 -11 13 -4 38 -18 55 -32 22
-16 31 -19 27 -8 -4 9 -1 15 9 15 8 0 26 9 41 21 24 19 27 19 48 5 34 -24 43
-19 13 7 -26 22 -26 25 -15 66 6 24 9 59 5 77 -6 33 -6 34 27 28 31 -5 13 4
-87 40 -20 8 -20 7 -1 -8z"/>
<path d="M3263 2025 c-60 -30 -141 -115 -193 -201 l-35 -59 2 -122 c3 -187 19
-225 116 -282 39 -24 45 -30 22 -24 -16 5 -58 8 -91 8 -79 -1 -127 -31 -170
-106 -17 -30 -50 -86 -72 -124 -70 -119 -76 -211 -19 -296 73 -109 313 -183
428 -132 80 35 115 76 175 201 124 259 107 312 -134 408 -15 6 11 9 85 9 169
0 223 32 293 174 45 90 100 249 100 288 0 48 -22 95 -60 127 -67 56 -256 137
-352 151 -35 5 -53 1 -95 -20z m210 -25 c50 -17 126 -52 169 -77 64 -38 82
-55 99 -91 28 -57 23 -86 -40 -247 -80 -202 -121 -245 -257 -268 -119 -20
-284 30 -351 107 -28 31 -31 42 -43 170 l-12 137 33 65 c38 75 135 186 188
214 51 27 110 24 214 -10z m-323 -671 c25 -5 81 -24 125 -40 237 -91 257 -138
154 -362 -62 -136 -92 -176 -157 -215 -114 -67 -346 -7 -438 114 -26 34 -29
45 -29 118 0 78 2 84 45 159 101 175 121 201 175 219 59 20 66 21 125 7z"/>
<path d="M3494 1914 c24 -14 27 -20 22 -47 -3 -18 -20 -45 -38 -61 -29 -26
-35 -28 -87 -22 -31 3 -67 8 -81 11 -15 3 -11 0 10 -9 19 -8 56 -15 82 -15 45
-1 47 -2 53 -35 18 -95 -58 -171 -203 -201 -58 -12 -60 -13 -17 -9 28 3 64 7
82 10 30 6 32 4 38 -29 11 -56 3 -82 -25 -86 -20 -3 -14 -6 25 -16 49 -13 76
-13 37 -1 -16 5 -20 18 -24 76 l-5 69 55 57 55 56 53 -6 c29 -3 61 -9 71 -12
17 -5 17 -5 0 6 -10 6 -42 14 -72 17 l-53 6 -4 51 c-3 43 0 54 20 71 12 11 29
38 36 60 13 37 17 40 48 38 29 -2 28 -1 -12 10 -104 30 -98 29 -66 11z"/>
<path d="M3234 1238 c25 -19 17 -76 -18 -128 l-25 -38 -58 24 c-32 13 -65 24
-73 24 -8 0 11 -11 43 -24 95 -39 103 -55 68 -131 -28 -61 -63 -88 -105 -83
-19 2 -32 0 -30 -4 3 -4 16 -8 30 -8 44 0 63 -93 22 -110 -22 -8 -22 -9 5 -9
29 -1 29 -1 26 57 -4 53 -1 61 29 97 18 22 35 50 38 63 4 13 14 22 24 22 11 0
22 5 25 11 4 6 0 9 -11 7 -34 -6 -30 54 5 103 20 27 31 54 31 76 0 25 4 33 18
33 14 1 15 2 2 9 -8 5 -26 12 -40 16 -24 7 -24 6 -6 -7z"/>
<path d="M3008 1123 c6 -2 18 -2 25 0 6 3 1 5 -13 5 -14 0 -19 -2 -12 -5z"/>
<path d="M3261 996 c2 -2 20 -6 39 -10 25 -4 31 -3 20 4 -14 9 -69 15 -59 6z"/>
<path d="M6760 2007 c-110 -38 -224 -100 -252 -138 -11 -14 -24 -45 -29 -68
-8 -38 -5 -56 27 -149 101 -298 170 -360 385 -350 l89 4 -78 -31 c-98 -39
-135 -65 -157 -111 -23 -49 -16 -101 27 -200 19 -43 43 -99 54 -124 24 -57 86
-125 139 -153 30 -16 58 -22 115 -22 133 0 271 64 335 154 27 38 30 51 30 114
0 70 -2 76 -69 199 -101 188 -137 215 -263 205 l-65 -5 50 29 c72 41 91 73
102 171 5 46 12 107 16 136 6 47 3 60 -29 126 -41 83 -147 204 -201 230 -52
25 -120 20 -226 -17z m247 -13 c94 -68 194 -219 196 -292 0 -20 -5 -84 -12
-142 -15 -131 -31 -154 -138 -207 -74 -37 -80 -38 -182 -38 -90 0 -114 4 -158
24 -79 35 -110 84 -182 278 -44 120 -49 164 -27 217 17 42 50 67 150 117 169
83 281 97 353 43z m237 -695 c37 -25 46 -39 127 -182 58 -103 72 -161 57 -231
-14 -66 -63 -118 -152 -161 -99 -47 -188 -62 -258 -41 -57 16 -106 48 -138 89
-30 37 -132 274 -137 317 -5 45 22 98 65 127 36 23 167 76 247 99 70 19 146
13 189 -17z"/>
<path d="M6705 1909 c-39 -12 -49 -18 -27 -16 30 3 33 1 42 -33 5 -20 23 -49
39 -64 26 -24 28 -32 20 -54 -6 -15 -8 -36 -5 -48 5 -20 1 -22 -53 -27 -33 -3
-67 -10 -78 -17 -17 -11 -17 -11 0 -6 10 3 43 9 72 12 l54 7 58 -62 c43 -45
56 -65 51 -78 -3 -10 -7 -39 -7 -65 -1 -38 -5 -48 -22 -53 -44 -14 -9 -15 42
-1 46 13 49 15 22 15 -31 1 -33 3 -33 35 0 49 17 89 35 82 8 -3 38 -8 67 -11
l53 -5 -55 13 c-128 30 -194 94 -188 183 l3 48 46 1 c43 2 155 33 147 41 -2 2
-26 -3 -53 -11 -78 -24 -137 -20 -169 11 -14 15 -30 41 -34 58 -8 28 -6 33 22
48 39 21 27 21 -49 -3z"/>
<path d="M6980 1235 c-19 -7 -30 -14 -24 -14 6 -1 14 -18 17 -39 4 -20 19 -57
34 -82 17 -27 27 -56 25 -72 -3 -24 -8 -27 -50 -31 l-47 -3 47 -2 c44 -2 49
-5 67 -40 10 -20 30 -49 44 -62 24 -24 25 -30 18 -88 -7 -62 -7 -62 18 -62 23
1 24 2 9 11 -18 10 -23 45 -12 85 5 17 18 24 62 33 l57 10 -59 -4 c-51 -3 -61
-1 -83 21 -26 26 -62 99 -63 125 0 24 30 47 91 68 30 11 46 20 37 20 -10 1
-40 -8 -68 -19 -28 -11 -56 -18 -61 -15 -14 9 -41 65 -50 103 -6 27 -3 37 14
52 24 23 24 23 -23 5z"/>
<path d="M7198 1113 c6 -2 18 -2 25 0 6 3 1 5 -13 5 -14 0 -19 -2 -12 -5z"/>
<path d="M6908 983 c7 -3 16 -2 19 1 4 3 -2 6 -13 5 -11 0 -14 -3 -6 -6z"/>
<path d="M2796 685 c-48 -17 -103 -69 -115 -109 -5 -17 -12 -56 -16 -86 -3
-30 -15 -86 -25 -124 -26 -93 -15 -148 43 -211 51 -56 121 -82 240 -91 99 -8
161 8 220 57 42 34 61 67 71 119 4 19 19 71 33 115 23 73 24 85 14 135 -16 73
-32 91 -126 139 -135 68 -252 87 -339 56z m253 -31 c111 -44 172 -83 187 -120
19 -46 17 -120 -5 -179 -10 -27 -21 -70 -25 -95 -23 -160 -198 -227 -413 -159
-65 21 -123 72 -143 125 -14 36 -12 102 4 149 8 22 19 75 25 118 6 43 18 91
26 106 15 30 65 66 113 82 45 14 159 1 231 -27z"/>
<path d="M2975 584 c10 -7 22 -15 28 -17 15 -5 -1 -88 -22 -116 -15 -19 -35
-27 -92 -37 l-74 -13 73 3 c84 4 89 -4 45 -67 -22 -31 -28 -54 -31 -108 -3
-52 -8 -69 -21 -72 -9 -3 2 -5 24 -6 32 0 36 2 23 10 -32 18 -18 127 21 172
13 16 28 18 98 15 54 -2 76 0 65 6 -9 5 -45 10 -79 10 -62 1 -63 2 -63 28 0
15 11 44 25 64 16 23 25 51 25 75 0 27 5 38 16 41 9 2 -5 8 -31 14 -41 9 -45
9 -30 -2z"/>
<path d="M7220 675 c-30 -9 -92 -34 -138 -56 -74 -36 -86 -45 -103 -82 -23
-51 -25 -134 -4 -183 8 -20 20 -64 26 -99 13 -78 35 -115 92 -153 60 -42 123
-56 210 -49 118 10 175 32 228 87 59 60 74 116 53 196 -7 29 -20 95 -27 147
-17 108 -33 138 -94 174 -57 33 -161 40 -243 18z m229 -25 c61 -31 81 -68 96
-176 8 -52 19 -111 25 -130 18 -54 8 -127 -25 -174 -38 -54 -109 -88 -214
-100 -102 -11 -172 0 -226 38 -55 39 -81 81 -94 156 -6 35 -18 80 -26 100 -18
43 -19 95 -3 149 9 30 23 47 56 68 51 32 160 77 217 89 58 13 149 3 194 -20z"/>
<path d="M7235 580 c-11 -5 -33 -10 -50 -11 -23 -1 -25 -3 -8 -6 17 -3 23 -14
28 -53 4 -27 15 -61 26 -74 10 -13 19 -38 19 -54 0 -29 -1 -29 -43 -25 -23 3
-62 0 -86 -7 -57 -15 -49 -21 11 -9 66 14 126 1 152 -34 16 -22 21 -43 21 -97
0 -67 1 -69 27 -72 15 -3 25 -1 22 4 -3 4 -11 8 -18 8 -10 0 -15 20 -18 69 -3
53 -9 77 -31 109 -43 65 -39 69 56 66 l82 -3 -75 9 c-65 8 -79 14 -102 40 -37
40 -40 109 -5 133 25 18 22 20 -8 7z"/>
</g>
</svg>
